<!DOCTYPE svg PUBLIC "-//W3C//DTD SVG 1.1//EN" "http://www.w3.org/Graphics/SVG/1.1/DTD/svg11.dtd">
<!-- Uploaded to: SVG Repo, www.svgrepo.com, Transformed by: SVG Repo Mixer Tools -->
<svg version="1.1" id="Layer_1" xmlns="http://www.w3.org/2000/svg" xmlns:xlink="http://www.w3.org/1999/xlink" viewBox="-15.36 -15.36 542.72 542.72" xml:space="preserve" width="800px" height="800px" fill="#000000" stroke="#000000" stroke-width="0.00512" transform="matrix(1, 0, 0, 1, 0, 0)rotate(0)">
<g id="SVGRepo_bgCarrier" stroke-width="0"/>
<g id="SVGRepo_tracerCarrier" stroke-linecap="round" stroke-linejoin="round" stroke="#333333" stroke-width="20.48"> <polygon style="fill:#DFDFE1;" points="354.462,0 91.897,0 91.897,472.615 459.487,472.615 459.487,105.026 "/> <polygon style="fill:#CFCDD2;" points="354.462,105.026 354.462,0 275.692,0 275.692,472.615 459.487,472.615 459.487,105.026 "/> <rect x="52.513" y="196.923" style="fill:#88888F;" width="236.308" height="315.077"/> <rect x="170.667" y="196.923" style="fill:#56545A;" width="118.154" height="315.077"/> <rect x="111.59" y="256" style="fill:#6DC180;" width="118.154" height="39.385"/> <rect x="170.667" y="256" style="fill:#5CA15D;" width="59.077" height="39.385"/> <rect x="111.59" y="334.769" style="fill:#56545A;" width="39.385" height="39.385"/> <rect x="190.359" y="334.769" style="fill:#272729;" width="39.385" height="39.385"/> <rect x="111.59" y="413.538" style="fill:#56545A;" width="39.385" height="39.385"/> <rect x="190.359" y="413.538" style="fill:#272729;" width="39.385" height="39.385"/> </g>
<g id="SVGRepo_iconCarrier"> <polygon style="fill:#DFDFE1;" points="354.462,0 91.897,0 91.897,472.615 459.487,472.615 459.487,105.026 "/> <polygon style="fill:#CFCDD2;" points="354.462,105.026 354.462,0 275.692,0 275.692,472.615 459.487,472.615 459.487,105.026 "/> <rect x="52.513" y="196.923" style="fill:#88888F;" width="236.308" height="315.077"/> <rect x="170.667" y="196.923" style="fill:#56545A;" width="118.154" height="315.077"/> <rect x="111.59" y="256" style="fill:#6DC180;" width="118.154" height="39.385"/> <rect x="170.667" y="256" style="fill:#5CA15D;" width="59.077" height="39.385"/> <rect x="111.59" y="334.769" style="fill:#56545A;" width="39.385" height="39.385"/> <rect x="190.359" y="334.769" style="fill:#272729;" width="39.385" height="39.385"/> <rect x="111.59" y="413.538" style="fill:#56545A;" width="39.385" height="39.385"/> <rect x="190.359" y="413.538" style="fill:#272729;" width="39.385" height="39.385"/> </g>
</svg>